<?xml version="1.0" encoding="utf-8"?>
<!-- Generator: Adobe Illustrator 25.1.0, SVG Export Plug-In . SVG Version: 6.00 Build 0)  -->
<svg version="1.0" id="레이어_1" xmlns="http://www.w3.org/2000/svg" xmlns:xlink="http://www.w3.org/1999/xlink" x="0px"
	 y="0px" viewBox="0 0 30 30" style="enable-background:new 0 0 30 30;" xml:space="preserve">
<style type="text/css">
	.st0{opacity:0;fill:#FFFFFF;}
	.st1{fill:#FFFFFF;}
</style>
<rect class="st0" width="30" height="30"/>
<g>
	<path class="st1" d="M21.4,22.4c-0.3,0-0.5-0.1-0.7-0.3L7.9,9.3c-0.4-0.4-0.4-1,0-1.4s1-0.4,1.4,0l12.7,12.7c0.4,0.4,0.4,1,0,1.4
		C21.9,22.3,21.6,22.4,21.4,22.4z"/>
	<path class="st1" d="M8.6,22.4c-0.3,0-0.5-0.1-0.7-0.3c-0.4-0.4-0.4-1,0-1.4L20.7,7.9c0.4-0.4,1-0.4,1.4,0s0.4,1,0,1.4L9.3,22.1
		C9.1,22.3,8.9,22.4,8.6,22.4z"/>
</g>
</svg>
