<?xml version="1.0" encoding="utf-8"?>
<!-- Generator: Adobe Illustrator 25.2.1, SVG Export Plug-In . SVG Version: 6.00 Build 0)  -->
<svg version="1.1" id="레이어_1" xmlns="http://www.w3.org/2000/svg" xmlns:xlink="http://www.w3.org/1999/xlink" x="0px"
	 y="0px" viewBox="0 0 997.6 163.1" style="enable-background:new 0 0 997.6 163.1;" xml:space="preserve">
<style type="text/css">
	.st0{fill:#5E646B;}
</style>
<g>
	<g>
		<path class="st0" d="M439.9,86c-0.8,0-1.5,0.3-2.1,0.9l-11.2,11c-0.6,0.6-0.9,1.3-0.9,2.1c0,0.8,0.3,1.5,0.9,2.1
			c1.1,1.1,3.1,1.2,4.2,0l11.2-11c0.6-0.6,0.9-1.3,0.9-2.1c0-0.8-0.3-1.5-0.9-2.1C441.5,86.4,440.7,86,439.9,86z"/>
	</g>
	<g>
		<path class="st0" d="M408.2,16.7c-36,0-65.2,29.2-65.2,65.2c0,36,29.2,65.2,65.2,65.2c36,0,65.2-29.2,65.2-65.2
			C473.4,45.9,444.2,16.7,408.2,16.7z M413.6,115.6c0,2.8-2.3,5-5,5c-2.8,0-5-2.3-5-5V59.1l-19.2,18.9c-2,2-5.2,1.9-7.1-0.1
			c-2-2-1.9-5.2,0.1-7.1L403.5,45c1.6-1.7,4.1-2.3,6.3-1.4c2.3,0.9,3.8,3,3.8,5.5V115.6z M444.9,94.1l-11.2,11c-1.3,1.3-3.1,2-5,2
			c-1.9,0-3.7-0.8-5.1-2.1c-1.3-1.4-2-3.1-2-5c0-1.9,0.8-3.7,2.1-5L435,84c1.3-1.3,3.1-2,5-2c1.9,0,3.7,0.8,5.1,2.1
			c1.3,1.4,2,3.1,2,5C447,91,446.3,92.8,444.9,94.1z"/>
	</g>
	<g>
		<path class="st0" d="M959.6,76.4c-3,0-5.5,2.5-5.5,5.5c0,3,2.5,5.5,5.5,5.5h15.5c3.1,0,5.2-2.1,5.2-5.3c0-3.4-2.1-5.6-5.2-5.6
			H959.6z"/>
		<path class="st0" d="M979,107.4h-29.9c-1.2,0-1.2,0-1.2-1.2V57.5c0-0.9,0.1-1.2,1.2-1.2h29.3c3,0,5.1-2.1,5.1-5.1
			c0-3.1-2.1-5.2-5.1-5.2H946c-6.2,0-9.2,2.9-9.2,8.8v53.7c0,6.4,2.8,9.2,9.3,9.2h33c2.8,0,4.7-2.1,4.7-5
			C983.9,109.6,981.8,107.4,979,107.4z"/>
		<path class="st0" d="M748.5,45.1c-20.3,0-36.8,16.5-36.8,36.8c0,20.3,16.5,36.8,36.8,36.8c20.3,0,36.8-16.5,36.8-36.8
			C785.3,61.6,768.8,45.1,748.5,45.1z M748.5,107.9c-14.4,0-26-11.7-26-26c0-14.4,11.7-26,26-26c14.4,0,26,11.7,26,26
			C774.6,96.2,762.9,107.9,748.5,107.9z"/>
		<path class="st0" d="M551.6,76.3l-6.1-1.6c-7.5-1.7-11.1-5.1-11.1-10.4c0-5.4,5.3-9.1,13-9.1c5.4,0,10.3,1.4,14.6,4.1
			c2.5,1.6,5.5,0.8,7.1-1.5c1.4-2.2,1.3-5.4-1.6-7.4c-3-2-9.7-5.4-20.4-5.4c-16,0-24.3,9.9-24.3,19.8c0,9.9,6.8,17.2,18.8,20.1
			l6.2,1.6c8.3,2.1,11.9,5.5,11.9,11.2c0,6.9-5.4,10.8-14.7,10.8c-5.9,0-11.8-2.8-15.3-5.4c-1.1-0.7-2.2-1.1-3.3-1.1
			c-1.6,0-3.1,0.8-4.1,2.1c-1.6,2.1-1.7,5.4,1.1,7.8c5.3,4.4,13.2,6.9,21.7,6.9c15.9,0,26.2-8.6,26.2-21.9
			C571.2,86.4,564.4,79.2,551.6,76.3z"/>
		<path class="st0" d="M871.5,86.2c8.5-3.2,13.2-10.1,13.2-19.6c0-13.3-9.1-21-24.9-21h-15.6c-6.1,0-9.1,2.8-9.1,8.7v59
			c0,2.9,2.2,4.8,5.6,4.8c3.2,0,5.4-1.9,5.4-4.8v-57c0-0.5,0-0.6,0.1-0.7c0,0,0.1-0.1,0.8-0.1h11.5c10.5,0,15,3.4,15,11.3
			c0,6.5-3.5,10-11,11c-0.6,0.1-1.3,0.3-1.9,0.7l-0.2,0.1c-2.3,1.5-3,4.5-1.6,6.8l17.7,30c1,1.7,2.5,2.6,4.5,2.6c0,0,0,0,0,0
			c2.2,0,4.3-1.3,5.4-3.2c0.9-1.7,0.8-3.5-0.2-5.1L871.5,86.2z"/>
		<path class="st0" d="M644.2,64.6c-3.1,0-5.6,2.5-5.6,5.6v43.1c0,2.9,2.2,4.8,5.6,4.8c3.3,0,5.6-1.9,5.6-4.8V70.2
			C649.8,67.1,647.3,64.6,644.2,64.6z"/>
		<path class="st0" d="M667.7,45.6h-46.9c-2.8,0-4.7,2-4.7,5.1c0,3.1,1.9,5.2,4.8,5.2h46.8c2.8,0,4.7-2,4.7-5
			C672.4,47.8,670.5,45.6,667.7,45.6z"/>
	</g>
	<g>
		<path class="st0" d="M265,76.4c-3,0-5.5,2.5-5.5,5.5c0,3,2.5,5.5,5.5,5.5h15.5c3.1,0,5.2-2.1,5.2-5.3c0-3.4-2.1-5.6-5.2-5.6H265z"
			/>
		<path class="st0" d="M283.1,107.4h-29.9c-1.2,0-1.2,0-1.2-1.2V57.5c0-0.9,0.1-1.2,1.2-1.2h29.3c3,0,5.1-2.1,5.1-5.1
			c0-3.1-2.1-5.2-5.1-5.2h-32.5c-6.2,0-9.2,2.9-9.2,8.8v53.7c0,6.4,2.8,9.2,9.3,9.2h33c2.8,0,4.7-2.1,4.7-5
			C288,109.6,285.9,107.4,283.1,107.4z"/>
		<path class="st0" d="M51.4,45.1c-20.3,0-36.8,16.5-36.8,36.8c0,20.3,16.5,36.8,36.8,36.8c20.3,0,36.8-16.5,36.8-36.8
			C88.2,61.6,71.6,45.1,51.4,45.1z M51.4,107.9c-14.4,0-26-11.7-26-26c0-14.4,11.7-26,26-26s26,11.7,26,26
			C77.4,96.2,65.7,107.9,51.4,107.9z"/>
		<path class="st0" d="M185.2,45.4c-3,0-5.4,2.4-5.4,5.4V73c0,3,2.4,5.4,5.4,5.4c3,0,5.4-2.4,5.4-5.4V50.8
			C190.6,47.9,188.2,45.4,185.2,45.4z"/>
		<path class="st0" d="M147,47.9c-0.2-0.3-0.4-0.5-0.5-0.6l-0.2-0.2c-0.1-0.1-0.1-0.2-0.2-0.2c-1.7-1.7-4.5-2.1-6.5-0.8
			c-1.5,0.9-2.5,2.6-2.6,4.4l0,62.5c0,3,2.4,5.4,5.4,5.4c3,0,5.4-2.4,5.4-5.4V67.9l32.5,46.1c0.7,1.2,1.9,2.1,3.3,2.5
			c0.4,0.1,0.9,0.2,1.3,0.2c1,0,1.9-0.3,2.8-0.8c1.2-0.7,2.1-1.9,2.5-3.3c0.4-1.4,0.1-2.9-0.6-4.1L147,47.9z"/>
	</g>
</g>
</svg>
