<svg xmlns="http://www.w3.org/2000/svg" viewBox="0 0 40 40"><defs><style>.cls-1{fill:#d9dbdd;}.cls-2{fill:#5e646a;}</style></defs><title>Asset 1</title><g id="Layer_2" data-name="Layer 2"><g id="Layer_1-2" data-name="Layer 1"><path class="cls-1" d="M20,1A19,19,0,1,1,1,20,19,19,0,0,1,20,1m0-1A20,20,0,1,0,40,20,20,20,0,0,0,20,0Z"/><path class="cls-2" d="M21.62,30.46V20.92h3.2l.48-3.72H21.62V14.83c0-1.08.3-1.81,1.84-1.81h2V9.69a27.49,27.49,0,0,0-2.87-.15c-2.84,0-4.78,1.74-4.78,4.92V17.2H14.57v3.72h3.21v9.54Z"/></g></g></svg>