<svg xmlns="http://www.w3.org/2000/svg" viewBox="0 0 40 40"><defs><style>.cls-1{fill:#d9dbdd;}.cls-2{fill:#5e646a;}</style></defs><title>Asset 2</title><g id="Layer_2" data-name="Layer 2"><g id="Layer_1-2" data-name="Layer 1"><path class="cls-1" d="M20,1A19,19,0,1,1,1,20,19,19,0,0,1,20,1m0-1A20,20,0,1,0,40,20,20,20,0,0,0,20,0Z"/><path class="cls-2" d="M15.07,28.64V17H11.19V28.64ZM13.13,15.39a2,2,0,1,0,0-4,2,2,0,1,0-.05,4Zm4.08,13.25h3.87V22.13a2.73,2.73,0,0,1,.13-.95,2.13,2.13,0,0,1,2-1.41c1.4,0,2,1.07,2,2.63v6.24H29V22c0-3.58-1.91-5.24-4.46-5.24a3.87,3.87,0,0,0-3.52,2h0V17H17.21c.05,1.09,0,11.66,0,11.66Z"/></g></g></svg>