<svg xmlns="http://www.w3.org/2000/svg" viewBox="0 0 40 40"><defs><style>.cls-1{fill:#d9dbdd;}.cls-2{fill:#5e646a;}</style></defs><title>Asset 3</title><g id="Layer_2" data-name="Layer 2"><g id="Layer_1-2" data-name="Layer 1"><path class="cls-1" d="M20,1A19,19,0,1,1,1,20,19,19,0,0,1,20,1m0-1A20,20,0,1,0,40,20,20,20,0,0,0,20,0Z"/><path class="cls-2" d="M18.08,27.82a43.48,43.48,0,0,1-6.6-.33A2.83,2.83,0,0,1,10,26.7a3.07,3.07,0,0,1-.72-1.38,8.91,8.91,0,0,1-.31-2,49.79,49.79,0,0,1,0-6.58c.14-1.22.21-2.66,1.12-3.5a2.93,2.93,0,0,1,1.48-.76c.88-.16,4.61-.29,8.47-.29s7.59.13,8.46.29a2.94,2.94,0,0,1,1.75,1,8.69,8.69,0,0,1,.92,4.19c0,.6,0,4,0,4.64a10.6,10.6,0,0,1-.53,3.45,2.65,2.65,0,0,1-.61,1,2.92,2.92,0,0,1-1.56.79c-3.68.28-6.81.34-10.36.28Zm5.64-8c-2-1.09-4-2.11-6-3.16V22.9c2.11-1.15,4.33-2.2,6-3.14Z"/></g></g></svg>